<?xml version="1.0" encoding="UTF-8"?>
<svg id="Layer_1" data-name="Layer 1" xmlns="http://www.w3.org/2000/svg" viewBox="0 0 55.48 63.69">
  <defs>
    <style>
      .cls-1 {
        fill: #231f20;
      }
    </style>
  </defs>
  <path class="cls-1" d="M26.33,0h-.34L3.7,46.77l-.08-.02-3.62,7.64s4.37,3.39,6.28,4.99c.38.31,1.28,1.21.97,2.18l-.68,2.12,7.97-1.22c.41-.04,2.7-.04,3.1,0l7.97,1.22-.68-2.12c-.31-.98.59-1.88.97-2.18,1.9-1.59,7.73-6.28,7.73-6.28l-1.6-.7c-.63-.28-.66-.84-.59-1.23l1.51-5.34-5.07,1.06c-.18.02-.67-.02-.91-1.01l-.45-1.82-3.52,4.07s-2.28,2.49-1.57-1.31l1.53-8.12-2.82,1.42c-.16.07-.72.14-1.45-1.27l-.06-.12c2.77-6.42,5.38-12.88,7.62-18.3,2.57,7.01,5.47,13.94,8.98,21.8l8.98,20.26h11.28L26.33,0Z"/>
</svg>