<?xml version="1.0" encoding="UTF-8"?>
<svg id="Layer_1" data-name="Layer 1" xmlns="http://www.w3.org/2000/svg" viewBox="0 0 203.9 44.69">
  <defs>
    <style>
      .cls-1 {
        fill: #fff;
      }
    </style>
  </defs>
  <path class="cls-1" d="M22.9,17.23V.26h2.97v14.47h6.91v2.5h-9.88Z"/>
  <path class="cls-1" d="M59.83,17.23V.26h2.97v16.97h-2.97Z"/>
  <path class="cls-1" d="M85.71,17.49l-9.92-10.16c-.26-.24-.54-.52-.83-.75v10.65h-2.92V0h.09l9.9,10.13.83.8V.26h2.92v17.23h-.07Z"/>
  <path class="cls-1" d="M95.03,17.23V.26h10.68v2.5h-7.71v4.67h6.53v2.43h-6.53v4.88h8.06v2.5h-11.03Z"/>
  <g>
    <path class="cls-1" d="M-.15,44.32v-16.81h10.57v2.47H2.79v4.62h6.47v2.4H2.79v4.83h7.98v2.47H-.15Z"/>
    <path class="cls-1" d="M24.57,27.26h.09l7.96,17.06h-3.08l-1.49-3.34h-6.86l-1.49,3.34h-3.08l7.96-17.06ZM27.09,38.79c-.96-2.15-1.75-4.04-2.45-5.95-.72,1.75-1.59,3.9-2.5,5.95h4.95Z"/>
    <path class="cls-1" d="M45.27,27.51c3.81,0,6.21,1.91,6.21,5.35,0,2.47-1.49,4.11-3.31,4.74l3.66,6.72h-3.15l-3.22-6.23h-2.96v6.23h-2.89v-16.81h5.67ZM42.5,29.99v5.72h2.94c1.89,0,3.11-1,3.11-2.85s-1.26-2.87-3.24-2.87h-2.8Z"/>
    <path class="cls-1" d="M65.87,29.99v14.33h-2.94v-14.33h-4.9v-2.47h12.74v2.47h-4.9Z"/>
    <path class="cls-1" d="M88.71,44.32v-7.28h-7.61v7.28h-2.94v-16.81h2.94v7.07h7.61v-7.07h2.94v16.81h-2.94Z"/>
    <path class="cls-1" d="M102.14,27.51l2.47,6.35c.61,1.56,1.14,3.08,1.52,4.23.35-.91.91-2.29,1.49-3.66l1.03-2.45,1.82-4.3h.09c1.54,3.57,3.38,7.77,4.34,10.41.79-2.24,2.75-7.31,3.99-10.57h3.24l-7.17,17.06h-.09l-3.46-8.29c-.3-.75-.65-1.54-.91-2.26l-.89,2.26-3.48,8.29h-.09l-7.14-17.06h3.22Z"/>
    <path class="cls-1" d="M136.14,27.21c4.93,0,8.71,3.8,8.71,8.71s-3.71,8.7-8.71,8.7-8.71-3.8-8.71-8.7,3.73-8.71,8.71-8.71ZM136.14,41.92c3.34,0,5.74-2.59,5.74-6s-2.4-6-5.74-6-5.76,2.62-5.76,6,2.43,6,5.76,6Z"/>
    <path class="cls-1" d="M158.38,27.51c3.81,0,6.21,1.91,6.21,5.35,0,2.47-1.49,4.11-3.31,4.74l3.66,6.72h-3.15l-3.22-6.23h-2.96v6.23h-2.89v-16.81h5.67ZM155.6,29.99v5.72h2.94c1.89,0,3.1-1,3.1-2.85s-1.26-2.87-3.24-2.87h-2.8Z"/>
    <path class="cls-1" d="M175.85,35.96l7.26-8.45h3.52l-6.07,6.89,6.16,9.92h-3.34l-4.81-7.96-2.73,3.01v4.95h-2.94v-16.81h2.94v8.45Z"/>
    <path class="cls-1" d="M192.97,43.67v-2.87c1.19.61,2.8,1.17,4.48,1.21.61,0,1.19-.05,1.68-.19,1.19-.28,1.91-.89,1.91-1.8,0-1.33-.96-2.05-3.53-2.96-3.08-1.1-4.71-2.4-4.71-5.14,0-2.94,2.45-4.71,5.86-4.71,1.68,0,3.29.42,4.3.84v2.75c-.96-.54-2.57-1-4.08-1-1.91,0-3.2.79-3.2,2.08,0,1.19.89,1.98,3.46,2.92,3.08,1.14,4.76,2.45,4.76,5.11,0,2.94-2.24,4.71-6,4.71-1.94,0-3.76-.47-4.92-.96Z"/>
  </g>
  <path class="cls-1" d="M7.69,0h-.09L-.44,17.23h3.11S6.93,7.4,7.67,5.63c.71,1.93,4.95,11.6,4.95,11.6h3.11L7.69,0Z"/>
  <path class="cls-1" d="M45.82.26h-5.37v16.97h2.97V1.08l.92,1.74c.26.5.46.47.51.45l1-.5-.54,2.88c-.25,1.35.55.47.55.47l1.25-1.44.16.64c.09.35.26.37.32.36l1.8-.38-.53,1.89c-.02.14-.01.34.21.44l.57.25s-2.06,1.66-2.74,2.23c-.13.11-.45.43-.34.77l.04.11c3.31-.25,5.38-2.13,5.38-5.32,0-3.47-2.38-5.4-6.15-5.4Z"/>
</svg>