<?xml version="1.0" encoding="UTF-8"?>
<svg id="Layer_1" data-name="Layer 1" xmlns="http://www.w3.org/2000/svg" viewBox="0 0 334.73 17.34">
  <defs>
    <style>
      .cls-1 {
        fill: #fff;
      }
    </style>
  </defs>
  <path class="cls-1" d="M23.34,17.25V.28h2.97v14.47h6.91v2.5h-9.88Z"/>
  <path class="cls-1" d="M60.27,17.25V.28h2.97v16.97h-2.97Z"/>
  <path class="cls-1" d="M86.15,17.51l-9.92-10.16c-.26-.24-.54-.52-.83-.75v10.65h-2.92V.02h.09l9.9,10.13.83.8V.28h2.92v17.23h-.07Z"/>
  <path class="cls-1" d="M95.47,17.25V.28h10.68v2.5h-7.71v4.67h6.53v2.43h-6.53v4.88h8.06v2.5h-11.03Z"/>
  <g>
    <path class="cls-1" d="M130.68,17.04V.23h10.57v2.47h-7.63v4.62h6.47v2.4h-6.47v4.83h7.98v2.47h-10.92Z"/>
    <path class="cls-1" d="M155.4-.02h.09l7.96,17.06h-3.08l-1.49-3.34h-6.86l-1.49,3.34h-3.08L155.4-.02ZM157.92,11.51c-.96-2.15-1.75-4.04-2.45-5.95-.72,1.75-1.59,3.9-2.5,5.95h4.95Z"/>
    <path class="cls-1" d="M176.11.23c3.81,0,6.21,1.91,6.21,5.35,0,2.47-1.49,4.11-3.31,4.74l3.66,6.72h-3.15l-3.22-6.23h-2.96v6.23h-2.89V.23h5.67ZM173.33,2.71v5.72h2.94c1.89,0,3.11-1,3.11-2.85s-1.26-2.87-3.24-2.87h-2.8Z"/>
    <path class="cls-1" d="M196.71,2.71v14.33h-2.94V2.71h-4.9V.23h12.74v2.47h-4.9Z"/>
    <path class="cls-1" d="M219.54,17.04v-7.28h-7.61v7.28h-2.94V.23h2.94v7.07h7.61V.23h2.94v16.81h-2.94Z"/>
    <path class="cls-1" d="M232.98.23l2.47,6.35c.61,1.56,1.14,3.08,1.52,4.23.35-.91.91-2.29,1.49-3.66l1.03-2.45,1.82-4.3h.09c1.54,3.57,3.38,7.77,4.34,10.41.79-2.24,2.75-7.31,3.99-10.57h3.24l-7.17,17.06h-.09l-3.46-8.29c-.3-.75-.65-1.54-.91-2.26l-.89,2.26-3.48,8.29h-.09L229.76.23h3.22Z"/>
    <path class="cls-1" d="M266.98-.07c4.93,0,8.71,3.8,8.71,8.71s-3.71,8.7-8.71,8.7-8.71-3.8-8.71-8.7S262.01-.07,266.98-.07ZM266.98,14.63c3.34,0,5.74-2.59,5.74-6s-2.4-6-5.74-6-5.76,2.62-5.76,6,2.43,6,5.76,6Z"/>
    <path class="cls-1" d="M289.22.23c3.81,0,6.21,1.91,6.21,5.35,0,2.47-1.49,4.11-3.31,4.74l3.66,6.72h-3.15l-3.22-6.23h-2.96v6.23h-2.89V.23h5.67ZM286.44,2.71v5.72h2.94c1.89,0,3.1-1,3.1-2.85s-1.26-2.87-3.24-2.87h-2.8Z"/>
    <path class="cls-1" d="M306.68,8.68l7.26-8.45h3.52l-6.07,6.89,6.16,9.92h-3.34l-4.81-7.96-2.73,3.01v4.95h-2.94V.23h2.94v8.45Z"/>
    <path class="cls-1" d="M323.81,16.39v-2.87c1.19.61,2.8,1.17,4.48,1.21.61,0,1.19-.05,1.68-.19,1.19-.28,1.91-.89,1.91-1.8,0-1.33-.96-2.05-3.53-2.96-3.08-1.1-4.71-2.4-4.71-5.14,0-2.94,2.45-4.71,5.86-4.71,1.68,0,3.29.42,4.3.84v2.75c-.96-.54-2.57-1-4.08-1-1.91,0-3.2.79-3.2,2.08,0,1.19.89,1.98,3.46,2.92,3.08,1.14,4.76,2.45,4.76,5.11,0,2.94-2.24,4.71-6,4.71-1.94,0-3.76-.47-4.92-.96Z"/>
  </g>
  <path class="cls-1" d="M8.13.02h-.09L0,17.25h3.11S7.38,7.42,8.11,5.65c.71,1.93,4.95,11.6,4.95,11.6h3.11L8.13.02Z"/>
  <path class="cls-1" d="M46.26.28h-5.37v16.97h2.97V1.1l.92,1.74c.26.5.46.47.51.45l1-.5-.54,2.88c-.25,1.35.55.47.55.47l1.25-1.44.16.64c.09.35.26.37.32.36l1.8-.38-.53,1.89c-.02.14-.01.34.21.44l.57.25s-2.06,1.66-2.74,2.23c-.13.11-.45.43-.34.77l.04.11c3.31-.25,5.38-2.13,5.38-5.32,0-3.47-2.38-5.4-6.15-5.4Z"/>
</svg>