<?xml version="1.0" encoding="UTF-8"?>
<svg id="Layer_1" data-name="Layer 1" xmlns="http://www.w3.org/2000/svg" viewBox="0 0 106.5 32.15">
  <defs>
    <style>
      .cls-1 {
        fill: #231f20;
      }
    </style>
  </defs>
  <path class="cls-1" d="M23.34,17.23V.26h2.97v14.47h6.91v2.5h-9.88Z"/>
  <path class="cls-1" d="M60.27,17.23V.26h2.97v16.97h-2.97Z"/>
  <path class="cls-1" d="M86.15,17.49l-9.92-10.16c-.26-.24-.54-.52-.83-.75v10.65h-2.92V0h.09l9.9,10.13.83.8V.26h2.92v17.23h-.07Z"/>
  <path class="cls-1" d="M95.47,17.23V.26h10.68v2.5h-7.71v4.67h6.53v2.43h-6.53v4.88h8.06v2.5h-11.03Z"/>
  <path class="cls-1" d="M.54,32v-8.72h5.49v1.28h-3.96v2.4h3.35v1.25h-3.35v2.51h4.14v1.28H.54Z"/>
  <path class="cls-1" d="M13.36,23.14h.05l4.13,8.85h-1.6l-.78-1.73h-3.56l-.78,1.73h-1.6l4.13-8.85ZM14.67,29.13c-.5-1.11-.91-2.1-1.27-3.09-.38.91-.82,2.02-1.3,3.09h2.57Z"/>
  <path class="cls-1" d="M24.11,23.28c1.97,0,3.22.99,3.22,2.77,0,1.28-.78,2.13-1.72,2.46l1.9,3.49h-1.64l-1.67-3.23h-1.54v3.23h-1.5v-8.72h2.94ZM22.67,24.56v2.97h1.53c.98,0,1.61-.52,1.61-1.48s-.65-1.49-1.68-1.49h-1.45Z"/>
  <path class="cls-1" d="M34.79,24.56v7.44h-1.53v-7.44h-2.54v-1.28h6.61v1.28h-2.54Z"/>
  <path class="cls-1" d="M46.64,32v-3.78h-3.95v3.78h-1.53v-8.72h1.53v3.67h3.95v-3.67h1.53v8.72h-1.53Z"/>
  <path class="cls-1" d="M53.61,23.28l1.28,3.29c.31.81.59,1.6.79,2.19.18-.47.47-1.19.78-1.9l.53-1.27.94-2.23h.05c.8,1.85,1.76,4.03,2.25,5.4.41-1.16,1.43-3.79,2.07-5.49h1.68l-3.72,8.85h-.05l-1.79-4.3c-.16-.39-.34-.8-.47-1.17l-.46,1.17-1.8,4.3h-.05l-3.71-8.85h1.67Z"/>
  <path class="cls-1" d="M71.26,23.12c2.56,0,4.52,1.97,4.52,4.52s-1.93,4.52-4.52,4.52-4.52-1.97-4.52-4.52,1.94-4.52,4.52-4.52ZM71.26,30.75c1.73,0,2.98-1.34,2.98-3.11s-1.25-3.11-2.98-3.11-2.99,1.36-2.99,3.11,1.26,3.11,2.99,3.11Z"/>
  <path class="cls-1" d="M82.79,23.28c1.97,0,3.22.99,3.22,2.77,0,1.28-.78,2.13-1.72,2.46l1.9,3.49h-1.64l-1.67-3.23h-1.54v3.23h-1.5v-8.72h2.94ZM81.35,24.56v2.97h1.53c.98,0,1.61-.52,1.61-1.48s-.65-1.49-1.68-1.49h-1.45Z"/>
  <path class="cls-1" d="M91.86,27.66l3.77-4.38h1.83l-3.15,3.57,3.2,5.15h-1.73l-2.49-4.13-1.42,1.56v2.57h-1.53v-8.72h1.53v4.38Z"/>
  <path class="cls-1" d="M100.74,31.66v-1.49c.62.32,1.45.61,2.33.63.31,0,.62-.02.87-.1.62-.15.99-.46.99-.93,0-.69-.5-1.07-1.83-1.54-1.6-.57-2.45-1.25-2.45-2.66,0-1.53,1.27-2.45,3.04-2.45.87,0,1.71.22,2.23.44v1.43c-.5-.28-1.33-.52-2.12-.52-.99,0-1.66.41-1.66,1.08,0,.62.46,1.03,1.79,1.51,1.6.59,2.47,1.27,2.47,2.65,0,1.53-1.16,2.45-3.11,2.45-1,0-1.95-.24-2.56-.5Z"/>
  <path d="M8.13,0h-.09L0,17.23h3.11S7.38,7.4,8.11,5.63c.71,1.93,4.95,11.6,4.95,11.6h3.11L8.13,0Z"/>
  <path class="cls-1" d="M46.26.26h-5.37v16.97h2.97V1.08l.92,1.74c.26.5.46.47.51.45l1-.5-.54,2.88c-.25,1.35.55.47.55.47l1.25-1.44.16.64c.09.35.26.37.32.36l1.8-.38-.53,1.89c-.02.14-.01.34.21.44l.57.25s-2.06,1.66-2.74,2.23c-.13.11-.45.43-.34.77l.04.11c3.31-.25,5.38-2.13,5.38-5.32,0-3.47-2.38-5.4-6.15-5.4Z"/>
</svg>